<svg width="320" height="320" viewBox="0 0 320 320" fill="none" xmlns="http://www.w3.org/2000/svg">
  <defs>
    <linearGradient id="nickAvatarBg" x1="34" y1="28" x2="272" y2="288" gradientUnits="userSpaceOnUse">
      <stop stop-color="#F6C36E" />
      <stop offset="1" stop-color="#D7672C" />
    </linearGradient>
  </defs>
  <rect width="320" height="320" rx="80" fill="url(#nickAvatarBg)" />
  <path d="M74 103L122 38L146 121L74 103Z" fill="#8D431A" />
  <path d="M246 103L198 38L174 121L246 103Z" fill="#8D431A" />
  <circle cx="160" cy="160" r="108" fill="#F29A4A" />
  <path d="M160 270C194.794 270 223 241.794 223 207H97C97 241.794 125.206 270 160 270Z" fill="#FFF3E5" />
  <circle cx="122" cy="152" r="13" fill="#2F2016" />
  <circle cx="198" cy="152" r="13" fill="#2F2016" />
  <path d="M160 174L147 193H173L160 174Z" fill="#5A2F19" />
  <path d="M132 221C141.667 231.667 178.333 231.667 188 221" stroke="#A84E1E" stroke-width="10" stroke-linecap="round" />
  <text x="160" y="298" text-anchor="middle" font-size="24" font-family="'Microsoft YaHei', sans-serif" fill="#FFF7ED">
    尼克狐尼克
  </text>
</svg>
